<?xml version="1.0" encoding="UTF-8"?>
<!DOCTYPE svg PUBLIC "-//W3C//DTD SVG 1.1//EN" "http://www.w3.org/Graphics/SVG/1.1/DTD/svg11.dtd">
<!-- Creator: CorelDRAW -->
<svg xmlns="http://www.w3.org/2000/svg" xml:space="preserve" width="1.3546mm" height="1.3546mm" version="1.1" style="shape-rendering:geometricPrecision; text-rendering:geometricPrecision; image-rendering:optimizeQuality; fill-rule:evenodd; clip-rule:evenodd"
viewBox="0 0 135.46 135.46"
 xmlns:xlink="http://www.w3.org/1999/xlink"
 xmlns:xodm="http://www.corel.com/coreldraw/odm/2003">
 <defs>
  <style type="text/css">
   <![CDATA[
    .str0 {stroke:#E55238;stroke-width:7.62;stroke-miterlimit:22.9256}
    .fil0 {fill:#E87837}
    .fil1 {fill:#E55238}
    .fil2 {fill:#E33738}
    .fil3 {fill:#246EB2}
    .fil5 {fill:#324F88}
    .fil4 {fill:#384173}
   ]]>
  </style>
 </defs>
 <g id="Camada_x0020_1">
  <metadata id="CorelCorpID_0Corel-Layer"/>
  <g id="_2315596841392">
   <path class="fil0" d="M61.93 54.48l0 14.73c2.88,-0.88 6.03,-2.91 8.56,-4.78 4.5,-3.33 3.91,-3.8 5.18,-9.95 8.64,7.13 0.72,16.36 -5.21,21.48 -9.21,7.95 -8.73,16.89 -1.52,22.91 10.29,8.59 26.63,1.96 30.93,-11.88 2.34,-7.51 1.57,-8.4 1.03,-15.68 -2.3,3.72 -1.44,7.76 -5.61,9.46 7.17,-16.82 -7.74,-34.43 -18.41,-43.43 -4.32,-3.64 -8.16,-5.94 -12.42,-9.15 0.97,4.69 3.3,7.94 2.85,14.68 -0.44,6.39 -3.71,7.71 -5.38,11.61z"/>
   <path class="fil0" d="M73.8 129.15l22.54 -10.38c6.98,-2.6 17.07,-6.74 25.11,-7.5 2.15,3.62 4.62,4.24 5.61,8.42 -8.86,0 -43.16,4.57 -51.39,12.62 4.69,-0.44 23.16,-7.75 41.11,-8.42 8.39,-0.31 10.61,-4.26 12.14,3.16 -9.96,0 -18.87,0.01 -27.78,1.33 -3.22,0.48 -8.92,1.92 -12.4,2.86l-8.75 2.77c-0.27,0.13 -1.04,0.56 -1.26,0.69l-1.19 0.77c3.5,-0.09 18.39,-3.59 27.06,-4.25 9.72,-0.73 19.8,-1.01 30.86,-1.01 -1.11,-4.69 -2.48,-2.68 -2.86,-5.84 -0.37,-3.11 2.37,-0.24 0.58,-4.04 -1.7,-3.6 -5.78,-6.39 -7.99,-10.11 4.34,-0.4 1.63,1.13 3.73,-2.1 -3.35,-2.53 -6,-5.23 -9.97,-7.71 -4.13,-2.58 -7.51,-3.8 -11.51,-5.96 0.78,3.32 0.01,1.65 2.43,3.56 3.16,2.5 7.8,4.28 10.65,9.06 -0.15,0.08 -16.78,4.81 -25.1,8.56 -5.84,2.64 -18.35,8.5 -21.62,13.52z"/>
   <path class="fil1" d="M14.94 111.27l0 -8.41c-5.01,1.88 -3.81,3.11 -7.47,4.21l0 3.15 3.74 0 -9.12 10.77c1.87,5.61 -3.08,-4.67 0.67,0.93 2,2.98 2.39,-0.39 -2.77,8.29 16.02,0 29.5,0.03 44.33,2.69 4.7,0.84 9.41,2.46 13.6,2.57 -0.97,-0.76 0.25,-0.08 -1.81,-1.13 -13.82,-6.99 -34.8,-7.29 -49.57,-7.29 3.5,-7.46 4.13,-3.4 12.13,-3.15 22.03,0.71 39.62,9.06 43.92,9.46 -1.27,-1.24 -0.03,-0.38 -2.27,-1.65 -14.47,-8.13 -35.88,-12.02 -51.92,-12.02 1.84,-3.08 3.48,-5.79 6.54,-8.42z"/>
   <path class="fil2" d="M42.04 89.19c-4.89,-1.28 -4.02,-2.66 -7.48,-5.26 1.53,7.38 8.42,16.15 14.93,17.88l0 -12.62c-0.03,-2.98 -0.41,-3.9 -0.41,-5.26 0,-1.36 0.38,-2.28 0.41,-5.26l-0.01 -23.14c-3.88,2.99 -7.54,8.46 -9.24,13.75 -0.9,2.79 -1.33,6.34 -1.02,10.41 0.41,5.6 1.88,5.55 2.82,9.5z"/>
   <path class="fil1" d="M49.48 55.53l0.01 23.14c2.53,-1.87 3.14,-3.49 5.64,-5.24 2.38,-1.66 4.22,-2.14 6.8,-4.22l0 -14.73 -1.21 0c0,-8.7 0.24,-9.97 -4.67,-13.67 0,9.16 -1.44,10.93 -6.57,14.72z"/>
   <path class="fil1" d="M49.49 89.19l0 12.62c3.41,3.27 8.39,3.67 12.93,4.4 7.82,1.27 8.69,-0.19 16.05,-0.19 -2.23,-3.44 -4.25,-1.69 -8.56,-2.98 -3.52,-1.06 -5.72,-2.15 -8.06,-4.6 -7.17,-7.48 -5.13,-8.42 -3,-18.72 -2.24,0.59 -4.29,1.39 -5.71,3.04l-2.12 3.92c-0.1,0.2 -0.24,0.48 -0.35,0.67 -1.22,2.2 -0.24,0.65 -1.18,1.84z"/>
   <path class="fil3" d="M80 16.62c2.02,2.58 5.55,5.34 8.35,7.82 3.26,2.88 5.65,5.33 8.68,8.1 2.82,2.59 15.93,13.67 17.07,15.63 0.81,-2.64 -0.84,-1.58 0.98,-2.1 1.15,-2.91 -0.35,-2.89 -2.04,-4.21 -1.63,-2.75 -7.3,-7.17 -10.06,-9.71l-21.92 -19.5c-4.25,-3.93 -7.85,-8.28 -12.07,-8.65 2.94,5.19 9.32,6.89 11.01,12.62z"/>
   <path class="fil3" d="M12.15 55.53c1.31,-1.63 14.94,-15.66 16.76,-14.72 4.05,-2.34 6.98,-5.71 10.73,-9.01 2.32,-2.04 3.06,-3.01 5.07,-4.8 2.91,-2.58 2.92,-1.54 4.8,-5.57l-1.87 -0.05 -0.93 0.5 0.93 -0.06c2.13,-1.26 0.86,1.01 2.81,-2.35 0,-2.13 -0.58,-1.8 0.93,-1.8l0.93 -1.05 0.94 -1.05 0.93 -1.06c0.77,-1.52 0.46,-1.11 0.94,-3.15l-35.72 33.41c-2.46,2.46 -3.45,3.4 -6.05,5.81 -2.28,2.11 -4.14,3.65 -4.95,7.06 3.37,-0.32 2.22,1.14 3.75,-2.11z"/>
   <path class="fil1 str0" d="M62.57 129.12l-0.01 0.02 -23.2 -10.64c-4.62,-1.73 -19.75,-7.03 -24.42,-7.23l0 -8.41c0.66,-2.33 5.02,-4.52 7.19,-5.58 3.04,-1.49 6.02,-2.44 8.7,-3.88 -1.34,4.15 -11.56,7.03 -15.89,13.67 2.24,1.21 10.04,2.77 13.48,3.76 7.91,2.28 30.67,13.06 34.15,18.29z"/>
   <path class="fil0" d="M62.57 129.12l-0.01 0.02 0.03 0.01c-0.01,-0.01 -0.01,-0.02 -0.02,-0.03z"/>
   <path class="fil3" d="M54.18 14.51l-0.93 1.06 -0.94 1.05 -0.93 1.05 -0.93 1.8c-1.95,3.36 -0.68,1.09 -2.81,2.35l0 -0.44 1.87 0.05c3.48,-0.23 1.75,-0.25 4.55,-2.82 1.66,-1.52 3.01,-2.77 4.66,-4.25 3.11,-2.8 6.37,-4.61 8.54,-8.26 3.62,2.73 9.32,8.69 12.74,10.52 -1.69,-5.73 -8.07,-7.43 -11.01,-12.62 -6.07,0.6 -8.96,8.76 -14.81,10.51z"/>
   <path class="fil4" d="M114.1 48.17c3.42,2.93 9.48,9.14 12.96,9.47 -0.86,-3.63 -2.31,-4.37 -4.67,-6.32 -3.66,-3 -2.34,-3.26 -7.31,-5.25 -1.82,0.52 -0.17,-0.54 -0.98,2.1z"/>
   <path class="fil5" d="M12.15 55.53c2.94,-1.35 0.61,-0.05 2.48,-1.34l14.28 -13.38c-1.82,-0.94 -15.45,13.09 -16.76,14.72z"/>
   <polygon class="fil1" points="62.59,129.15 62.59,130.21 63.68,129.33 "/>
   <path class="fil0" d="M105.57 95.5l0.28 -0.31c-0.02,0.02 -0.37,0.2 -0.28,0.31z"/>
   <polygon class="fil2" points="73.8,129.15 71.79,129.73 "/>
   <path class="fil3" d="M6.93 56.49l59.29 -55.47c0.9,-0.83 2.25,-0.67 3.01,0.36l0 0c0.76,1.03 0.66,2.56 -0.24,3.39l-59.29 55.47c-0.89,0.84 -2.25,0.68 -3.01,-0.35l0 0c-0.76,-1.03 -0.65,-2.56 0.24,-3.4z"/>
   <path class="fil3" d="M66.54 4.28l59.29 55.47c0.9,0.84 2.25,0.68 3.01,-0.35l0 -0.01c0.76,-1.03 0.66,-2.55 -0.24,-3.39l-59.29 -55.47c-0.89,-0.84 -2.25,-0.67 -3.01,0.36l0 0c-0.76,1.03 -0.65,2.56 0.24,3.39z"/>
  </g>
 </g>
</svg>
