<?xml version="1.0" encoding="UTF-8"?>
<!DOCTYPE svg PUBLIC "-//W3C//DTD SVG 1.1//EN" "http://www.w3.org/Graphics/SVG/1.1/DTD/svg11.dtd">
<!-- Creator: CorelDRAW -->
<svg xmlns="http://www.w3.org/2000/svg" xml:space="preserve" width="16.2558mm" height="16.2558mm" version="1.1" style="shape-rendering:geometricPrecision; text-rendering:geometricPrecision; image-rendering:optimizeQuality; fill-rule:evenodd; clip-rule:evenodd"
viewBox="0 0 1625.58 1625.58"
 xmlns:xlink="http://www.w3.org/1999/xlink"
 xmlns:xodm="http://www.corel.com/coreldraw/odm/2003">
 <defs>
  <style type="text/css">
   <![CDATA[
    .str0 {stroke:#E55238;stroke-width:7.62;stroke-miterlimit:22.9256}
    .fil0 {fill:#E87837}
    .fil1 {fill:#E55238}
    .fil2 {fill:#E33738}
    .fil3 {fill:#246EB2}
    .fil5 {fill:#324F88}
    .fil4 {fill:#384173}
   ]]>
  </style>
 </defs>
 <g id="Camada_x0020_1">
  <metadata id="CorelCorpID_0Corel-Layer"/>
  <g id="_2315430142224">
   <path class="fil0" d="M743.17 653.82l0 176.67c34.63,-10.55 72.42,-34.91 102.74,-57.35 53.95,-39.95 46.91,-45.53 62.17,-119.32 103.72,85.54 8.57,196.27 -62.54,257.71 -110.46,95.44 -104.7,202.61 -18.22,274.89 123.44,103.14 319.53,23.52 371.19,-142.59 27.99,-90 18.74,-100.7 12.27,-188.1 -27.52,44.59 -17.2,93.18 -67.26,113.58 86.07,-201.93 -92.87,-413.15 -220.91,-521.13 -51.88,-43.74 -97.92,-71.32 -149.06,-109.85 11.65,56.3 39.64,95.35 34.16,176.18 -5.2,76.69 -44.52,92.51 -64.54,139.31z"/>
   <path class="fil0" d="M885.66 1549.81l270.49 -124.59c83.77,-31.25 204.74,-80.89 301.27,-89.94 25.82,43.4 55.39,50.87 67.27,100.95 -106.25,0 -517.84,54.79 -616.61,151.44 56.21,-5.26 277.96,-92.96 493.28,-100.98 100.75,-3.76 127.32,-51.19 145.75,37.89 -119.57,0 -226.51,0.04 -333.39,15.91 -38.65,5.74 -107.07,23.03 -148.83,34.39l-105.02 33.23c-3.2,1.52 -12.5,6.73 -15.13,8.21l-14.24 9.21c41.99,-1.06 220.71,-43.06 324.74,-50.92 116.56,-8.81 237.63,-12.17 370.35,-12.17 -13.32,-56.18 -29.78,-32.16 -34.35,-70.03 -4.49,-37.29 28.4,-2.88 6.87,-48.52 -20.36,-43.15 -69.29,-76.6 -95.84,-121.24 52.07,-4.87 19.61,13.54 44.84,-25.23 -40.22,-30.32 -72,-62.72 -119.64,-92.48 -49.56,-30.95 -90.18,-45.64 -138.22,-71.57 9.46,39.83 0.22,19.84 29.26,42.79 37.83,29.92 93.57,51.26 127.71,108.63 -1.73,0.94 -201.32,57.7 -301.11,102.76 -70.17,31.69 -220.2,101.95 -259.45,162.26z"/>
   <path class="fil1" d="M179.31 1335.28l0 -100.96c-60.05,22.5 -45.71,37.28 -89.63,50.47l0 37.86 44.84 0 -109.44 129.22c22.54,67.27 -36.93,-56.08 8.09,11.13 23.97,35.82 28.74,-4.65 -33.18,99.44 192.2,0 353.99,0.44 531.85,32.3 56.45,10.12 113,29.54 163.24,30.79 -11.63,-9.08 3.03,-0.94 -21.69,-13.44 -165.85,-83.89 -417.57,-87.51 -594.92,-87.51 42.07,-89.51 49.63,-40.86 145.62,-37.76 264.3,8.51 475.41,108.63 527.04,113.48 -15.21,-14.9 -0.34,-4.64 -27.28,-19.78 -173.67,-97.65 -430.53,-144.29 -622.96,-144.29 22,-36.96 41.67,-69.47 78.42,-100.95z"/>
   <path class="fil2" d="M504.48 1070.26c-58.67,-15.38 -48.21,-31.84 -89.68,-63.09 18.33,88.59 101.01,193.78 179.06,214.53l0 -151.44c-0.36,-35.7 -4.86,-46.8 -4.86,-63.09 0,-16.3 4.5,-27.39 4.86,-63.1l-0.04 -277.63c-46.64,35.88 -90.53,101.48 -110.94,164.98 -10.74,33.41 -15.87,76 -12.25,124.9 4.98,67.21 22.61,66.51 33.85,113.94z"/>
   <path class="fil1" d="M593.82 666.44l0.04 277.63c30.38,-22.49 37.78,-41.85 67.77,-62.86 28.55,-19.97 50.64,-25.74 81.54,-50.72l0 -176.67 -14.46 0c0,-104.46 2.88,-119.63 -56.06,-164.07 0,109.98 -17.31,131.23 -78.83,176.69z"/>
   <path class="fil1" d="M593.86 1070.26l0 151.44c40.98,39.29 100.7,44 155.21,52.84 93.78,15.2 104.25,-2.36 192.65,-2.36 -26.87,-41.29 -51.09,-20.27 -102.76,-35.77 -42.29,-12.67 -68.62,-25.73 -96.77,-55.12 -86,-89.79 -61.46,-101.1 -35.91,-224.59 -26.91,7.05 -51.52,16.69 -68.51,36.44l-25.48 47.06c-1.24,2.37 -2.92,5.73 -4.17,7.98 -14.68,26.45 -2.98,7.8 -14.26,22.08z"/>
   <path class="fil3" d="M960.03 199.5c24.18,30.95 66.63,64.15 100.16,93.8 39.13,34.58 67.86,64.03 104.16,97.3 33.86,31.04 191.22,163.92 204.83,187.5 9.81,-31.66 -10.01,-18.92 11.85,-25.24 13.73,-34.86 -4.2,-34.59 -24.51,-50.48 -19.62,-32.99 -87.6,-85.98 -120.73,-116.49l-263.04 -233.94c-50.98,-47.2 -94.18,-99.42 -144.82,-103.87 35.26,62.27 111.81,82.65 132.1,151.42z"/>
   <path class="fil3" d="M145.79 666.44c15.72,-19.58 179.39,-187.98 201.18,-176.69 48.57,-28.08 83.74,-68.49 128.76,-108.06 27.82,-24.46 36.72,-36.13 60.87,-57.59 34.91,-31.01 35.03,-18.49 57.58,-66.87l-22.43 -0.6 -11.21 5.98 11.21 -0.71c25.53,-15.07 10.33,12.16 33.63,-28.16 0,-25.52 -6.9,-21.61 11.22,-21.61l11.21 -12.63 11.2 -12.61 11.22 -12.62c9.15,-18.34 5.44,-13.36 11.22,-37.86l-428.65 400.88c-29.47,29.57 -41.32,40.84 -72.59,69.73 -27.34,25.26 -49.63,43.79 -59.32,84.66 40.39,-3.79 26.55,13.71 44.9,-25.24z"/>
   <path class="fil1 str0" d="M750.85 1549.39l-0.14 0.23 -278.35 -127.7c-55.5,-20.75 -236.96,-84.32 -293.05,-86.64l0 -100.96c7.94,-27.94 60.21,-54.19 86.29,-66.98 36.48,-17.9 72.26,-29.26 104.36,-46.6 -16.05,49.91 -138.72,84.37 -190.6,164.05 26.84,14.51 120.39,33.21 161.72,45.12 94.9,27.37 368.06,156.72 409.77,219.48z"/>
   <path class="fil0" d="M750.85 1549.39l-0.14 0.23 0.42 0.19c-0.09,-0.13 -0.18,-0.28 -0.28,-0.42z"/>
   <path class="fil3" d="M650.23 174.27l-11.22 12.62 -11.2 12.61 -11.21 12.63 -11.22 21.61c-23.3,40.32 -8.1,13.09 -33.63,28.16l0 -5.27 22.43 0.6c41.78,-2.7 21,-2.94 54.63,-33.85 19.87,-18.24 36.01,-33.16 55.82,-50.98 37.39,-33.61 76.49,-55.28 102.55,-99.09 43.37,32.69 111.81,104.28 152.85,126.19 -20.29,-68.77 -96.84,-89.15 -132.1,-151.42 -72.81,7.27 -107.56,105.11 -177.7,126.19z"/>
   <path class="fil4" d="M1369.18 578.1c41.12,35.1 113.81,109.67 155.51,113.58 -10.33,-43.56 -27.65,-52.42 -56.04,-75.74 -43.86,-36.01 -28.06,-39.17 -87.62,-63.08 -21.86,6.32 -2.04,-6.42 -11.85,25.24z"/>
   <path class="fil5" d="M145.79 666.44c35.37,-16.21 7.39,-0.59 29.76,-16.08l171.42 -160.61c-21.79,-11.29 -185.46,157.11 -201.18,176.69z"/>
   <polygon class="fil1" points="751.13,1549.81 751.13,1562.44 764.21,1551.91 "/>
   <path class="fil0" d="M1266.84 1145.98l3.35 -3.76c-0.23,0.24 -4.47,2.51 -3.35,3.76z"/>
   <polygon class="fil2" points="885.66,1549.81 861.55,1556.76 "/>
   <path class="fil3" d="M83.21 677.94l711.49 -665.56c10.72,-10.04 26.97,-8.11 36.1,4.26l0.01 0.01c9.13,12.37 7.84,30.7 -2.88,40.73l-711.49 665.57c-10.73,10.03 -26.98,8.1 -36.11,-4.27l0 -0.01c-9.14,-12.36 -7.84,-30.7 2.88,-40.73z"/>
   <path class="fil3" d="M798.52 51.49l711.49 665.56c10.72,10.03 26.97,8.11 36.1,-4.26l0.01 -0.01c9.13,-12.37 7.84,-30.71 -2.88,-40.74l-711.49 -665.56c-10.73,-10.03 -26.98,-8.11 -36.11,4.26l-0.01 0.01c-9.13,12.37 -7.84,30.7 2.89,40.74z"/>
  </g>
 </g>
</svg>
